# xmcd CD database file
#
# Track frame offsets:
#	150
#	34982
#	64818
#	97618
#	125478
#	142845
#	162550
#	182324
#	222472
#	246992
#	270287
#	298050
#
# Disc length: 4337 seconds
#
# Revision: 0
# Processed by: cddbd v1.5.2PL0 Copyright (c) Steve Scherf et al.
# Submitted via: CDex 1.70beta2
#
DISCID=ac10ef0c
DTITLE=Steve Berry - The Paris Vendetta Disc 5
DYEAR=2009
DGENRE=Audio Book
TTITLE0=The Paris Vendetta Disc 5-01
TTITLE1=The Paris Vendetta Disc 5-02
TTITLE2=The Paris Vendetta Disc 5-03
TTITLE3=The Paris Vendetta Disc 5-04
TTITLE4=The Paris Vendetta Disc 5-05
TTITLE5=The Paris Vendetta Disc 5-06
TTITLE6=The Paris Vendetta Disc 5-07
TTITLE7=The Paris Vendetta Disc 5-08
TTITLE8=The Paris Vendetta Disc 5-09
TTITLE9=The Paris Vendetta Disc 5-10
TTITLE10=The Paris Vendetta Disc 5-11
TTITLE11=The Paris Vendetta Disc 5-12
EXTD=YEAR: 2009
EXTT0=
EXTT1=
EXTT2=
EXTT3=
EXTT4=
EXTT5=
EXTT6=
EXTT7=
EXTT8=
EXTT9=
EXTT10=
EXTT11=
PLAYORDER=
